<svg xmlns="http://www.w3.org/2000/svg" xmlns:xlink="http://www.w3.org/1999/xlink" width="814" zoomAndPan="magnify" viewBox="0 0 610.5 749.999995" height="1000" preserveAspectRatio="xMidYMid meet" version="1.0"><defs><clipPath id="fdf23e97ce"><path d="M 0 0.308594 L 610 0.308594 L 610 749.691406 L 0 749.691406 Z M 0 0.308594 " clip-rule="nonzero"/></clipPath></defs><g clip-path="url(#fdf23e97ce)"><path fill="#ffffff" d="M 591.074219 255.980469 C 586.726562 259.355469 509.925781 302.632812 509.925781 398.855469 C 509.925781 510.15625 607.648438 549.53125 610.574219 550.507812 C 610.125 552.90625 595.050781 604.433594 559.050781 656.933594 C 526.949219 703.132812 493.425781 749.257812 442.425781 749.257812 C 391.425781 749.257812 378.300781 719.632812 319.425781 719.632812 C 262.050781 719.632812 241.648438 750.230469 195 750.230469 C 148.351562 750.230469 115.800781 707.480469 78.375 654.980469 C 35.023438 593.332031 0 497.558594 0 406.65625 C 0 260.855469 94.800781 183.53125 188.101562 183.53125 C 237.675781 183.53125 279 216.082031 310.125 216.082031 C 339.75 216.082031 385.949219 181.582031 442.351562 181.582031 C 463.726562 181.582031 540.523438 183.53125 591.074219 255.980469 Z M 415.574219 119.855469 C 438.898438 92.183594 455.398438 53.78125 455.398438 15.382812 C 455.398438 10.058594 454.949219 4.65625 453.976562 0.308594 C 416.023438 1.730469 370.875 25.582031 343.648438 57.15625 C 322.273438 81.457031 302.324219 119.855469 302.324219 158.78125 C 302.324219 164.632812 303.300781 170.480469 303.75 172.355469 C 306.148438 172.808594 310.050781 173.332031 313.949219 173.332031 C 348 173.332031 390.824219 150.53125 415.574219 119.855469 Z M 415.574219 119.855469 " fill-opacity="1" fill-rule="nonzero"/></g></svg>