<svg xmlns="http://www.w3.org/2000/svg" xmlns:xlink="http://www.w3.org/1999/xlink" width="40" zoomAndPan="magnify" viewBox="0 0 30 30.000001" height="40" preserveAspectRatio="xMidYMid meet" version="1.0"><defs><clipPath id="bcbfe4d15a"><path d="M 0.484375 0 L 29.515625 0 L 29.515625 29 L 0.484375 29 Z M 0.484375 0 " clip-rule="nonzero"/></clipPath></defs><g clip-path="url(#bcbfe4d15a)"><path fill="#e593e2" d="M 4.738281 24.777344 C 2.003906 22.136719 0.304688 18.433594 0.304688 14.335938 C 0.304688 6.320312 6.804688 -0.179688 14.820312 -0.179688 C 18.917969 -0.179688 22.621094 1.519531 25.257812 4.25 L 25.261719 4.253906 C 27.785156 6.859375 29.335938 10.417969 29.335938 14.335938 C 29.335938 22.355469 22.839844 28.855469 14.820312 28.855469 C 10.902344 28.855469 7.34375 27.300781 4.734375 24.773438 Z M 23.214844 22.730469 C 25.320312 20.628906 26.617188 17.722656 26.617188 14.515625 C 26.617188 8.097656 21.417969 2.898438 15 2.898438 C 11.792969 2.898438 8.886719 4.199219 6.785156 6.300781 C 4.679688 8.402344 3.382812 11.308594 3.382812 14.515625 C 3.382812 20.933594 8.582031 26.136719 15 26.136719 C 18.207031 26.136719 21.113281 24.835938 23.214844 22.730469 Z M 10.210938 13.484375 L 13.546875 16.839844 L 19.789062 10.597656 L 21.824219 12.65625 L 13.546875 20.902344 L 8.175781 15.53125 L 10.210938 13.472656 Z M 10.210938 13.484375 " fill-opacity="1" fill-rule="nonzero"/></g></svg>