<svg xmlns="http://www.w3.org/2000/svg" xmlns:xlink="http://www.w3.org/1999/xlink" width="256" zoomAndPan="magnify" viewBox="0 0 192 191.999996" height="256" preserveAspectRatio="xMidYMid meet" version="1.0"><defs><clipPath id="1e5dc98334"><path d="M 19.007812 23.65625 L 176.507812 23.65625 L 176.507812 181.15625 L 19.007812 181.15625 Z M 19.007812 23.65625 " clip-rule="nonzero"/></clipPath><clipPath id="684d6f4ea6"><path d="M 19.007812 31 L 176 31 L 176 176 L 19.007812 176 Z M 19.007812 31 " clip-rule="nonzero"/></clipPath></defs><g clip-path="url(#1e5dc98334)"><path fill="#ffe812" d="M 193.367188 181.375 C 193.367188 189.660156 186.652344 196.375 178.367188 196.375 L 16.367188 196.375 C 8.082031 196.375 1.367188 189.660156 1.367188 181.375 L 1.367188 19.375 C 1.367188 11.089844 8.082031 4.375 16.367188 4.375 L 178.367188 4.375 C 186.652344 4.375 193.367188 11.089844 193.367188 19.375 Z M 193.367188 181.375 " fill-opacity="1" fill-rule="nonzero"/></g><g clip-path="url(#684d6f4ea6)"><path fill="#ffffff" d="M 97.367188 31.375 C 54.289062 31.375 19.367188 58.910156 19.367188 92.875 C 19.367188 114.835938 33.96875 134.105469 55.929688 144.984375 C 54.734375 149.105469 48.25 171.492188 47.992188 173.25 C 47.992188 173.25 47.835938 174.570312 48.691406 175.074219 C 49.550781 175.578125 50.554688 175.1875 50.554688 175.1875 C 53.007812 174.847656 79.011719 156.582031 83.511719 153.410156 C 88.011719 154.046875 92.640625 154.375 97.367188 154.375 C 140.445312 154.375 175.367188 126.84375 175.367188 92.875 C 175.367188 58.910156 140.445312 31.375 97.367188 31.375 Z M 97.367188 31.375 " fill-opacity="1" fill-rule="nonzero"/></g><path fill="#ffe812" d="M 54.242188 114.34375 C 51.761719 114.34375 49.742188 112.417969 49.742188 110.046875 L 49.742188 83.3125 L 42.722656 83.3125 C 40.285156 83.3125 38.304688 81.335938 38.304688 78.90625 C 38.304688 76.476562 40.285156 74.5 42.722656 74.5 L 65.765625 74.5 C 68.199219 74.5 70.179688 76.476562 70.179688 78.90625 C 70.179688 81.335938 68.199219 83.3125 65.765625 83.3125 L 58.742188 83.3125 L 58.742188 110.046875 C 58.742188 112.417969 56.722656 114.34375 54.242188 114.34375 Z M 93.703125 114.285156 C 91.824219 114.285156 90.390625 113.523438 89.957031 112.296875 L 87.730469 106.464844 L 74.007812 106.464844 L 71.777344 112.300781 C 71.34375 113.523438 69.910156 114.285156 68.035156 114.285156 C 67.035156 114.289062 66.082031 114.082031 65.171875 113.664062 C 63.933594 113.09375 62.742188 111.519531 64.105469 107.273438 L 74.871094 78.941406 C 75.628906 76.789062 77.933594 74.570312 80.863281 74.5 C 83.804688 74.566406 86.105469 76.789062 86.867188 78.949219 L 97.625 107.265625 C 98.996094 111.519531 97.800781 113.09375 96.5625 113.667969 C 95.652344 114.082031 94.699219 114.285156 93.703125 114.285156 C 93.699219 114.285156 93.703125 114.285156 93.703125 114.285156 Z M 85.363281 98.496094 L 80.867188 85.726562 L 76.371094 98.496094 Z M 104.867188 113.6875 C 102.488281 113.6875 100.554688 111.835938 100.554688 109.5625 L 100.554688 79 C 100.554688 76.519531 102.617188 74.5 105.148438 74.5 C 107.679688 74.5 109.742188 76.519531 109.742188 79 L 109.742188 105.4375 L 119.304688 105.4375 C 121.683594 105.4375 123.617188 107.289062 123.617188 109.5625 C 123.617188 111.835938 121.683594 113.6875 119.304688 113.6875 Z M 129.867188 114.285156 C 127.386719 114.285156 125.367188 112.269531 125.367188 109.785156 L 125.367188 79 C 125.367188 76.519531 127.386719 74.5 129.867188 74.5 C 132.351562 74.5 134.367188 76.519531 134.367188 79 L 134.367188 88.671875 L 146.921875 76.117188 C 147.570312 75.472656 148.457031 75.117188 149.417969 75.117188 C 150.542969 75.117188 151.671875 75.601562 152.515625 76.445312 C 153.304688 77.234375 153.773438 78.246094 153.839844 79.296875 C 153.902344 80.359375 153.550781 81.332031 152.847656 82.039062 L 142.589844 92.292969 L 153.667969 106.964844 C 154.421875 107.957031 154.707031 109.070312 154.53125 110.300781 C 154.363281 111.53125 153.78125 112.523438 152.785156 113.269531 C 151.984375 113.875 151.082031 114.179688 150.078125 114.175781 C 149.371094 114.179688 148.703125 114.023438 148.070312 113.707031 C 147.4375 113.394531 146.90625 112.953125 146.484375 112.386719 L 135.929688 98.40625 L 134.371094 99.964844 L 134.371094 109.785156 C 134.371094 110.078125 134.339844 110.371094 134.28125 110.660156 C 134.222656 110.953125 134.140625 111.234375 134.027344 111.507812 C 133.914062 111.777344 133.773438 112.039062 133.609375 112.285156 C 133.445312 112.53125 133.257812 112.757812 133.050781 112.964844 C 132.839844 113.175781 132.613281 113.363281 132.367188 113.527344 C 132.121094 113.691406 131.863281 113.828125 131.589844 113.941406 C 131.316406 114.054688 131.035156 114.140625 130.746094 114.199219 C 130.457031 114.257812 130.164062 114.285156 129.867188 114.285156 Z M 129.867188 114.285156 " fill-opacity="1" fill-rule="nonzero"/></svg>